<?xml version="1.0" standalone="no"?>
<!DOCTYPE svg PUBLIC "-//W3C//DTD SVG 20010904//EN"
 "http://www.w3.org/TR/2001/REC-SVG-20010904/DTD/svg10.dtd">
<svg version="1.0" xmlns="http://www.w3.org/2000/svg"
 width="260.000000pt" height="260.000000pt" viewBox="0 0 260.000000 260.000000"
 preserveAspectRatio="xMidYMid meet">
<metadata>
Created by potrace 1.14, written by Peter Selinger 2001-2017
</metadata>
<g transform="translate(0.000000,260.000000) scale(0.100000,-0.100000)"
fill="#000000" stroke="none">
<path d="M1068 2015 c-2 -2 -21 -5 -43 -8 -22 -3 -74 -18 -115 -33 -279 -100
-460 -358 -460 -652 1 -318 208 -586 520 -671 60 -17 96 -20 195 -17 66 1 133
8 148 14 16 7 26 8 22 3 -18 -30 261 -24 360 7 203 64 367 216 444 412 54 138
60 323 16 455 -78 230 -243 394 -465 462 -98 30 -241 38 -325 19 -31 -8 -62
-9 -80 -4 -28 8 -210 19 -217 13z m572 -381 c102 -46 185 -160 192 -264 l3
-45 -120 -1 c-161 -1 -192 -18 -250 -134 -38 -76 -77 -123 -133 -158 -105 -68
-236 -75 -347 -19 -51 26 -125 101 -150 153 -20 43 -44 133 -38 149 2 6 50 10
121 9 64 0 129 3 144 8 36 13 82 66 113 132 84 177 285 251 465 170z"/>
</g>
</svg>
